<?xml version="1.0" encoding="utf-8"?>
<!-- Generator: Adobe Illustrator 23.0.6, SVG Export Plug-In . SVG Version: 6.00 Build 0)  -->
<svg version="1.1" id="Capa_1" xmlns="http://www.w3.org/2000/svg" xmlns:xlink="http://www.w3.org/1999/xlink" x="0px" y="0px"
	 viewBox="0 0 378 574.71" style="enable-background:new 0 0 378 574.71;" xml:space="preserve">
<g>
	<path d="M162.49,218.18c-10.02,9.33-20.06,18.63-30.06,27.99c-13.79,12.9-27.52,25.85-41.34,38.71c-1.42,1.33-1.81,1.95-0.13,3.53
		c34.35,32.1,68.62,64.27,102.92,96.43c0.6,0.56,1.28,1.05,1.91,1.58c0.97-0.14,1.54,0.54,2.11,1.12
		c6.98,6.99,14.34,13.59,21.55,20.33c10.25,9.57,20.36,19.3,30.76,28.71c3.49,3.16,6.88,6.43,10.27,9.69
		c7.5,7.25,15.39,14.09,22.72,21.51c0.52,0.53,1.13,0.95,1.75,1.36c7.68,7.57,15.72,14.77,23.53,22.2
		c3.8,3.62,7.61,7.24,11.49,10.79c0.62,0.57,1.27,1.07,1.39,1.97c5.82,5.54,11.72,11,17.45,16.64c11.6,11.43,8.38,29.43-6.55,35.92
		c-9.93,4.32-19.27,2.8-27.28-4.54c-11.53-10.56-22.85-21.35-34.26-32.05c-37.66-35.33-75.32-70.66-112.99-105.99
		c-38.48-36.09-76.96-72.17-115.45-108.24c-5.32-4.99-7.93-11.01-7.44-18.33c0.15-2.21-0.23-4.42,0.14-6.64
		c0.92-5.53,3.69-9.9,7.75-13.71c61.87-57.95,123.7-115.94,185.53-173.93c0.33-0.31,0.61-0.69,0.91-1.03
		c0.67-0.99,1.33-1.98,2.22-2.81c10.92-10.21,21.72-20.55,32.78-30.62c3.41-3.11,6.71-6.35,10.04-9.54
		c7.6-7.28,15.34-14.42,23.02-21.61c4.34-4.06,8.2-8.85,13.94-11.24c2.47-1.02,4.88-2.2,7.67-1.78c7.83-0.5,14.84,1.39,20.54,7.08
		c8.68,8.65,8.78,21.85-0.16,30.47C327.25,63.71,315,74.99,302.85,86.38c-33.2,31.13-66.41,62.26-99.61,93.39
		c-0.26,0.25-0.46,0.56-0.69,0.84c-0.9,2.14-2.67,3.58-4.37,4.93c-4.22,3.35-7.86,7.3-11.78,10.95
		c-7.24,6.73-14.59,13.35-21.62,20.32C164.14,217.44,163.56,218.24,162.49,218.18z"/>
</g>
</svg>
