<?xml version="1.0" encoding="utf-8"?>
<!-- Generator: Adobe Illustrator 23.0.6, SVG Export Plug-In . SVG Version: 6.00 Build 0)  -->
<svg version="1.1" id="Capa_1" xmlns="http://www.w3.org/2000/svg" xmlns:xlink="http://www.w3.org/1999/xlink" x="0px" y="0px"
	 viewBox="0 0 11.87 15" style="enable-background:new 0 0 11.87 15;" xml:space="preserve">
<style type="text/css">
	.st0{fill:#7D9CC9;}
	.st1{fill:#FAF4A2;}
	.st2{fill:#D9CE36;}
	.st3{fill:#EEE74E;}
</style>
<g>
	<path class="st0" d="M6.23,1.14l-0.58-0.3L4.97,2.36c0.1,0.16,0.25,0.37,0.46,0.5C5.56,2.95,5.7,3,5.87,3
		C6.03,3,6.18,2.95,6.31,2.86c0.2-0.14,0.36-0.34,0.46-0.5L6.23,1.14z"/>
	<path class="st0" d="M10.83,11.48l-0.47-1.05L9.87,9.35l-0.5-1.12L8.86,7.08L8.65,6.61C8.43,6.69,8.19,6.77,7.94,6.84
		C7.9,6.86,7.85,6.87,7.8,6.88c-0.02,0-0.04,0-0.07,0c0.02,0,0.05,0,0.07,0c0.05-0.01,0.1-0.03,0.15-0.04
		c0.25-0.07,0.48-0.14,0.71-0.23L8.33,5.9C7.89,6.05,7.41,6.16,6.9,6.23L6.9,6.27l0.13,0.76l0.09,0.54L7.37,8.9
		C6.9,8.99,6.41,9.06,5.89,9.05c-0.01,0-0.02,0-0.03,0c-0.01,0-0.02,0-0.03,0c-0.51,0-1-0.06-1.47-0.15l0,0L4.6,7.57L4.7,7.03
		l0.14-0.78c0,0,0,0,0,0c-0.18,0.3-0.46,0.57-0.76,0.62C4.02,6.88,3.98,6.88,3.94,6.88c-0.06,0-0.12-0.02-0.17-0.04
		C3.52,6.7,3.43,6.31,3.39,5.92l-0.31,0.7L2.87,7.08L2.36,8.23l-0.5,1.12l-0.48,1.08l-0.47,1.05l-0.45,1.01
		c0.05,0.04,1.17,1.09,2.98,1.67l0.23-1.3l0.23-1.31l0.23-1.32l0,0c0.55,0.12,1.13,0.21,1.76,0.2c0.01,0,0.02,0,0.03,0
		c0.01,0,0.02,0,0.03,0c0.58,0,1.14-0.09,1.65-0.2l0.23,1.31l0.23,1.31l0.23,1.3c1.81-0.58,2.94-1.63,2.98-1.67L10.83,11.48z"/>
	<path class="st0" d="M7.8,6.88c0.05,0,0.1-0.02,0.15-0.04C7.9,6.85,7.85,6.86,7.8,6.88z"/>
	<path class="st0" d="M3.94,6.88C3.88,6.86,3.83,6.85,3.77,6.83C3.82,6.86,3.88,6.87,3.94,6.88z"/>
	<path class="st0" d="M6.31,2.91L6.9,6.23c0.52-0.07,1-0.18,1.44-0.32L6.77,2.41C6.67,2.57,6.52,2.78,6.31,2.91z"/>
	<path class="st0" d="M5.42,2.91c-0.2-0.14-0.36-0.34-0.46-0.5L3.4,5.9c0.44,0.14,0.92,0.26,1.44,0.32L5.42,2.91z"/>
	<path class="st0" d="M3.77,6.83c0.06,0.02,0.11,0.03,0.17,0.04c0.04,0,0.08,0,0.13-0.01c0.3-0.05,0.58-0.31,0.76-0.62c0,0,0,0,0,0
		l0-0.03l0,0l0,0l0,0c-0.52-0.07-1-0.18-1.44-0.32L3.39,5.92C3.43,6.31,3.52,6.7,3.77,6.83z"/>
	<path class="st1" d="M8.31,5.85L6.77,2.36c-0.1,0.16-0.25,0.37-0.46,0.5l0.58,3.31l0.01,0.04c0.18,0.3,0.45,0.55,0.75,0.6
		c0.05,0.01,0.1,0.01,0.14,0.01c0.05-0.01,0.1-0.03,0.14-0.04C8.19,6.66,8.27,6.25,8.31,5.85L8.31,5.85z"/>
	<path class="st2" d="M4.97,2.36L3.43,5.85L3.43,5.86C3.46,6.25,3.55,6.65,3.8,6.78c0.05,0.02,0.11,0.03,0.16,0.04
		c0.04,0,0.08,0,0.13-0.01C4.39,6.77,4.67,6.5,4.85,6.2c0,0,0,0,0,0l0-0.03v0l0,0l0.58-3.31C5.23,2.72,5.07,2.51,4.97,2.36z"/>
	<path class="st3" d="M6.89,6.2c0,0,0,0-0.01-0.03L6.31,2.86C6.18,2.95,6.03,3,5.87,3C5.71,3,5.56,2.95,5.43,2.86L4.85,6.17
		L4.86,6.2l0,0h0c0,0,0.4,0.89,1.02,0.86C6.5,7.09,6.89,6.2,6.89,6.2L6.89,6.2L6.89,6.2z"/>
</g>
</svg>
